grf
version=1
nRows=16
nColumns=46
inDegrees=yes
endheader
time	ground_force_1_vx	ground_force_1_vy	ground_force_1_vz	ground_force_1_px	ground_force_1_py	ground_force_1_pz	ground_moment_1_mx	ground_moment_1_my	ground_moment_1_mz	ground_force_2_vx	ground_force_2_vy	ground_force_2_vz	ground_force_2_px	ground_force_2_py	ground_force_2_pz	ground_moment_2_mx	ground_moment_2_my	ground_moment_2_mz	ground_force_3_vx	ground_force_3_vy	ground_force_3_vz	ground_force_3_px	ground_force_3_py	ground_force_3_pz	ground_moment_3_mx	ground_moment_3_my	ground_moment_3_mz	ground_force_4_vx	ground_force_4_vy	ground_force_4_vz	ground_force_4_px	ground_force_4_py	ground_force_4_pz	ground_moment_4_mx	ground_moment_4_my	ground_moment_4_mz	ground_force_5_vx	ground_force_5_vy	ground_force_5_vz	ground_force_5_px	ground_force_5_py	ground_force_5_pz	ground_moment_5_mx	ground_moment_5_my	ground_moment_5_mz
0.000000	0.000000	0.000000	0.000000	0.000000	0.000000	0.000000	0.000000	0.000000	0.000000	0.000000	0.000000	0.000000	0.000000	0.000000	0.000000	0.000000	0.000000	0.000000	0.000000	0.000000	0.000000	0.000000	0.000000	0.000000	0.000000	0.000000	0.000000	3.926547	507.351376	-128.326517	0.179932	0.000000	-0.893032	-0.000000	3.302735	0.000000	-3.330332	530.562524	135.633203	0.207226	0.000000	-1.573118	-0.000000	-2.205701	-0.000000
0.000500	0.000000	0.000000	0.000000	0.000000	0.000000	0.000000	0.000000	0.000000	0.000000	0.000000	0.000000	0.000000	0.000000	0.000000	0.000000	0.000000	0.000000	0.000000	0.000000	0.000000	0.000000	0.000000	0.000000	0.000000	0.000000	0.000000	0.000000	3.917186	507.343949	-128.293413	0.179936	0.000000	-0.893056	-0.000000	3.304989	0.000000	-3.346290	530.535024	135.641138	0.207213	0.000000	-1.573144	-0.000000	-2.203155	-0.000000
0.001000	0.000000	0.000000	0.000000	0.000000	0.000000	0.000000	0.000000	0.000000	0.000000	0.000000	0.000000	0.000000	0.000000	0.000000	0.000000	0.000000	0.000000	0.000000	0.000000	0.000000	0.000000	0.000000	0.000000	0.000000	0.000000	0.000000	0.000000	3.907827	507.335676	-128.260483	0.179939	0.000000	-0.893080	-0.000000	3.307193	0.000000	-3.362404	530.507193	135.648622	0.207199	0.000000	-1.573170	-0.000000	-2.200648	-0.000000
0.001500	0.000000	0.000000	0.000000	0.000000	0.000000	0.000000	0.000000	0.000000	0.000000	0.000000	0.000000	0.000000	0.000000	0.000000	0.000000	0.000000	0.000000	0.000000	0.000000	0.000000	0.000000	0.000000	0.000000	0.000000	0.000000	0.000000	0.000000	3.898504	507.326571	-128.227817	0.179943	0.000000	-0.893103	-0.000000	3.309341	0.000000	-3.378614	530.479092	135.655612	0.207186	0.000000	-1.573195	-0.000000	-2.198189	-0.000000
0.002000	0.000000	0.000000	0.000000	0.000000	0.000000	0.000000	0.000000	0.000000	0.000000	0.000000	0.000000	0.000000	0.000000	0.000000	0.000000	0.000000	0.000000	0.000000	0.000000	0.000000	0.000000	0.000000	0.000000	0.000000	0.000000	0.000000	0.000000	3.889247	507.316630	-128.195496	0.179947	0.000000	-0.893125	-0.000000	3.311426	0.000000	-3.394866	530.450783	135.662071	0.207172	0.000000	-1.573221	-0.000000	-2.195786	-0.000000
0.002500	0.000000	0.000000	0.000000	0.000000	0.000000	0.000000	0.000000	0.000000	0.000000	0.000000	0.000000	0.000000	0.000000	0.000000	0.000000	0.000000	0.000000	0.000000	0.000000	0.000000	0.000000	0.000000	0.000000	0.000000	0.000000	0.000000	0.000000	3.880081	507.305834	-128.163593	0.179952	0.000000	-0.893148	-0.000000	3.313444	0.000000	-3.411109	530.422336	135.667966	0.207159	0.000000	-1.573245	-0.000000	-2.193445	-0.000000
0.003000	0.000000	0.000000	0.000000	0.000000	0.000000	0.000000	0.000000	0.000000	0.000000	0.000000	0.000000	0.000000	0.000000	0.000000	0.000000	0.000000	0.000000	0.000000	0.000000	0.000000	0.000000	0.000000	0.000000	0.000000	0.000000	0.000000	0.000000	3.871030	507.294159	-128.132171	0.179957	0.000000	-0.893169	-0.000000	3.315391	0.000000	-3.427300	530.393821	135.673273	0.207146	0.000000	-1.573270	-0.000000	-2.191173	-0.000000
0.003500	0.000000	0.000000	0.000000	0.000000	0.000000	0.000000	0.000000	0.000000	0.000000	0.000000	0.000000	0.000000	0.000000	0.000000	0.000000	0.000000	0.000000	0.000000	0.000000	0.000000	0.000000	0.000000	0.000000	0.000000	0.000000	0.000000	0.000000	3.862118	507.281583	-128.101286	0.179962	0.000000	-0.893190	-0.000000	3.317268	0.000000	-3.443399	530.365315	135.677977	0.207132	0.000000	-1.573293	-0.000000	-2.188978	-0.000000
0.004000	0.000000	0.000000	0.000000	0.000000	0.000000	0.000000	0.000000	0.000000	0.000000	0.000000	0.000000	0.000000	0.000000	0.000000	0.000000	0.000000	0.000000	0.000000	0.000000	0.000000	0.000000	0.000000	0.000000	0.000000	0.000000	0.000000	0.000000	3.853366	507.268095	-128.070986	0.179968	0.000000	-0.893210	-0.000000	3.319075	0.000000	-3.459368	530.336897	135.682070	0.207119	0.000000	-1.573316	-0.000000	-2.186864	-0.000000
0.004500	0.000000	0.000000	0.000000	0.000000	0.000000	0.000000	0.000000	0.000000	0.000000	0.000000	0.000000	0.000000	0.000000	0.000000	0.000000	0.000000	0.000000	0.000000	0.000000	0.000000	0.000000	0.000000	0.000000	0.000000	0.000000	0.000000	0.000000	3.844791	507.253692	-128.041311	0.179974	0.000000	-0.893230	-0.000000	3.320816	0.000000	-3.475168	530.308653	135.685554	0.207106	0.000000	-1.573338	-0.000000	-2.184835	-0.000000
0.005000	0.000000	0.000000	0.000000	0.000000	0.000000	0.000000	0.000000	0.000000	0.000000	0.000000	0.000000	0.000000	0.000000	0.000000	0.000000	0.000000	0.000000	0.000000	0.000000	0.000000	0.000000	0.000000	0.000000	0.000000	0.000000	0.000000	0.000000	3.836406	507.238387	-128.012302	0.179981	0.000000	-0.893249	-0.000000	3.322496	0.000000	-3.490758	530.280675	135.688437	0.207093	0.000000	-1.573359	-0.000000	-2.182893	-0.000000
0.005500	0.000000	0.000000	0.000000	0.000000	0.000000	0.000000	0.000000	0.000000	0.000000	0.000000	0.000000	0.000000	0.000000	0.000000	0.000000	0.000000	0.000000	0.000000	0.000000	0.000000	0.000000	0.000000	0.000000	0.000000	0.000000	0.000000	0.000000	3.828220	507.222205	-127.983997	0.179987	0.000000	-0.893267	-0.000000	3.324118	0.000000	-3.506097	530.253065	135.690732	0.207080	0.000000	-1.573380	-0.000000	-2.181040	-0.000000
0.006000	0.000000	0.000000	0.000000	0.000000	0.000000	0.000000	0.000000	0.000000	0.000000	0.000000	0.000000	0.000000	0.000000	0.000000	0.000000	0.000000	0.000000	0.000000	0.000000	0.000000	0.000000	0.000000	0.000000	0.000000	0.000000	0.000000	0.000000	3.820239	507.205183	-127.956431	0.179995	0.000000	-0.893284	-0.000000	3.325686	0.000000	-3.521143	530.225929	135.692455	0.207067	0.000000	-1.573399	-0.000000	-2.179275	-0.000000
0.006500	0.000000	0.000000	0.000000	0.000000	0.000000	0.000000	0.000000	0.000000	0.000000	0.000000	0.000000	0.000000	0.000000	0.000000	0.000000	0.000000	0.000000	0.000000	0.000000	0.000000	0.000000	0.000000	0.000000	0.000000	0.000000	0.000000	0.000000	3.812471	507.187364	-127.929633	0.180002	0.000000	-0.893300	-0.000000	3.327202	0.000000	-3.535853	530.199379	135.693623	0.207054	0.000000	-1.573418	-0.000000	-2.177594	-0.000000
0.007000	0.000000	0.000000	0.000000	0.000000	0.000000	0.000000	0.000000	0.000000	0.000000	0.000000	0.000000	0.000000	0.000000	0.000000	0.000000	0.000000	0.000000	0.000000	0.000000	0.000000	0.000000	0.000000	0.000000	0.000000	0.000000	0.000000	0.000000	3.804917	507.168796	-127.903626	0.180010	0.000000	-0.893315	-0.000000	3.328669	0.000000	-3.550180	530.173525	135.694258	0.207042	0.000000	-1.573435	-0.000000	-2.175996	-0.000000
0.007500	0.000000	0.000000	0.000000	0.000000	0.000000	0.000000	0.000000	0.000000	0.000000	0.000000	0.000000	0.000000	0.000000	0.000000	0.000000	0.000000	0.000000	0.000000	0.000000	0.000000	0.000000	0.000000	0.000000	0.000000	0.000000	0.000000	0.000000	3.797581	507.149533	-127.878424	0.180018	0.000000	-0.893329	-0.000000	3.330088	0.000000	-3.564075	530.148473	135.694387	0.207029	0.000000	-1.573452	-0.000000	-2.174474	-0.000000
